<?xml version="1.0" encoding="UTF-8" standalone="no"?>
<!-- Created with Inkscape (http://www.inkscape.org/) -->

<svg
   width="400"
   height="1000"
   viewBox="0 0 400 1000"
   version="1.1"
   id="svg5"
   inkscape:export-filename="f4.svg"
   inkscape:export-xdpi="96"
   inkscape:export-ydpi="96"
   inkscape:version="1.2.1 (9c6d41e410, 2022-07-14)"
   sodipodi:docname="pa.svg"
   xmlns:inkscape="http://www.inkscape.org/namespaces/inkscape"
   xmlns:sodipodi="http://sodipodi.sourceforge.net/DTD/sodipodi-0.dtd"
   xmlns="http://www.w3.org/2000/svg"
   xmlns:svg="http://www.w3.org/2000/svg">
  <sodipodi:namedview
     id="namedview7"
     pagecolor="#ffffff"
     bordercolor="#000000"
     borderopacity="0.25"
     inkscape:showpageshadow="2"
     inkscape:pageopacity="0.0"
     inkscape:pagecheckerboard="0"
     inkscape:deskcolor="#d1d1d1"
     inkscape:document-units="px"
     showgrid="true"
     showguides="true"
     inkscape:zoom="0.914906"
     inkscape:cx="304.40286"
     inkscape:cy="909.38304"
     inkscape:window-width="2192"
     inkscape:window-height="1262"
     inkscape:window-x="3244"
     inkscape:window-y="3229"
     inkscape:window-maximized="1"
     inkscape:current-layer="layer2">
    <inkscape:grid
       type="xygrid"
       id="grid132"
       originx="0"
       originy="1000"
       spacingx="40"
       spacingy="40"
       empspacing="5"
       dotted="false" />
    <sodipodi:guide
       position="-120,520"
       orientation="0,-1"
       id="guide30722"
       inkscape:locked="false" />
  </sodipodi:namedview>
  <defs
     id="defs2">
    <inkscape:path-effect
       effect="powerstroke"
       id="path-effect3556"
       is_visible="true"
       lpeversion="1"
       offset_points="0.2,0 | 0.5,0 | 0.8,0"
       not_jump="false"
       sort_points="true"
       interpolator_type="CentripetalCatmullRom"
       interpolator_beta="0.75"
       start_linecap_type="square"
       linejoin_type="round"
       miter_limit="4"
       scale_width="309"
       end_linecap_type="square" />
    <inkscape:path-effect
       effect="vonkoch"
       id="path-effect3548"
       is_visible="true"
       lpeversion="1"
       ref_path="M 52.916016,105.83398 H 158.75"
       generator="m 52.916016,105.83398 h 35.277995 m 35.277999,0 H 158.75"
       similar_only="false"
       nbgenerations="4"
       drawall="true"
       maxComplexity="1000" />
    <inkscape:path-effect
       effect="offset"
       id="path-effect3546"
       is_visible="true"
       lpeversion="1.2"
       linejoin_type="miter"
       unit="mm"
       offset="0"
       miter_limit="4"
       attempt_force_join="false"
       update_on_knot_move="true" />
    <inkscape:path-effect
       effect="skeletal"
       id="path-effect3544"
       is_visible="true"
       lpeversion="1"
       pattern="M 0,0 H 1"
       copytype="single_stretched"
       prop_scale="1"
       scale_y_rel="false"
       spacing="0"
       normal_offset="0"
       tang_offset="0"
       prop_units="false"
       vertical_pattern="false"
       hide_knot="false"
       fuse_tolerance="0" />
    <inkscape:path-effect
       effect="fill_between_many"
       method="bsplinespiro"
       linkedpaths="#path3538,0,1"
       id="path-effect3558"
       join="true"
       close="true"
       autoreverse="true"
       is_visible="true"
       lpeversion="0" />
  </defs>
  <g
     inkscape:groupmode="layer"
     id="layer2"
     inkscape:label="Layer 2">
    <path
       id="path83580"
       style="color:#000000;fill:#000000;stroke-miterlimit:2;-inkscape-stroke:none"
       d="m 240,480 c -48.33314,0 -89.22569,16.26858 -118.60156,41.56445 C 92.022567,546.86036 74.004622,579.43992 62.408203,611.33008 39.215368,675.11036 40,740.00008 40,760 c 0,19.98082 -1.023479,75.87543 23.449219,130.72461 24.472695,54.84915 82.940351,108.38215 176.167971,109.27344 93.4824,0.89375 152.5385,-52.98338 176.98437,-108.24024 1.73336,-3.91802 3.3065,-7.84056 4.79297,-11.75781 h -88.7832 c -15.46779,24.21561 -39.53982,40.50567 -92.22852,40.00195 -66.82905,-0.6389 -88.36219,-27.10705 -103.875,-61.875 C 128.21845,839.54851 124.14004,818.60749 122.07813,800 H 280 357.95312 438.70898 C 440.14529,782.34292 440,768.1217 440,760 440,740.00008 440.78461,675.11036 417.5918,611.33008 405.99537,579.43992 387.97743,546.86036 358.60156,521.56445 329.22569,496.26858 288.33313,480 240,480 Z m 0,80 c 31.66654,0 50.77447,8.73158 66.39844,22.18555 15.62393,13.45393 27.60627,33.37473 36.00976,56.48437 9.84019,27.0605 14.11353,57.0049 16.02735,81.33008 h -236.8711 c 1.91382,-24.32518 6.18717,-54.26958 16.02735,-81.33008 8.40349,-23.10964 20.38583,-43.03044 36.00976,-56.48437 C 189.22553,568.73158 208.33345,560 240,560 Z" />
  </g>
</svg>
