<?xml version="1.0" encoding="UTF-8" standalone="no"?>
<!-- Created with Inkscape (http://www.inkscape.org/) -->

<svg
   width="400"
   height="1000"
   viewBox="0 0 400 1000"
   version="1.1"
   id="svg5"
   inkscape:export-filename="f4.svg"
   inkscape:export-xdpi="96"
   inkscape:export-ydpi="96"
   inkscape:version="1.2.1 (9c6d41e410, 2022-07-14)"
   sodipodi:docname="ya3.svg"
   xmlns:inkscape="http://www.inkscape.org/namespaces/inkscape"
   xmlns:sodipodi="http://sodipodi.sourceforge.net/DTD/sodipodi-0.dtd"
   xmlns="http://www.w3.org/2000/svg"
   xmlns:svg="http://www.w3.org/2000/svg">
  <sodipodi:namedview
     id="namedview7"
     pagecolor="#ffffff"
     bordercolor="#000000"
     borderopacity="0.25"
     inkscape:showpageshadow="2"
     inkscape:pageopacity="0.0"
     inkscape:pagecheckerboard="0"
     inkscape:deskcolor="#d1d1d1"
     inkscape:document-units="px"
     showgrid="true"
     showguides="true"
     inkscape:zoom="0.914906"
     inkscape:cx="327.35603"
     inkscape:cy="764.01291"
     inkscape:window-width="2192"
     inkscape:window-height="1262"
     inkscape:window-x="3244"
     inkscape:window-y="3229"
     inkscape:window-maximized="1"
     inkscape:current-layer="layer2">
    <inkscape:grid
       type="xygrid"
       id="grid132"
       originx="0"
       originy="1000"
       spacingx="40"
       spacingy="40"
       empspacing="5"
       dotted="false" />
    <sodipodi:guide
       position="-120,520"
       orientation="0,-1"
       id="guide30722"
       inkscape:locked="false" />
  </sodipodi:namedview>
  <defs
     id="defs2">
    <inkscape:path-effect
       effect="powerstroke"
       id="path-effect3556"
       is_visible="true"
       lpeversion="1"
       offset_points="0.2,0 | 0.5,0 | 0.8,0"
       not_jump="false"
       sort_points="true"
       interpolator_type="CentripetalCatmullRom"
       interpolator_beta="0.75"
       start_linecap_type="square"
       linejoin_type="round"
       miter_limit="4"
       scale_width="309"
       end_linecap_type="square" />
    <inkscape:path-effect
       effect="vonkoch"
       id="path-effect3548"
       is_visible="true"
       lpeversion="1"
       ref_path="M 52.916016,105.83398 H 158.75"
       generator="m 52.916016,105.83398 h 35.277995 m 35.277999,0 H 158.75"
       similar_only="false"
       nbgenerations="4"
       drawall="true"
       maxComplexity="1000" />
    <inkscape:path-effect
       effect="offset"
       id="path-effect3546"
       is_visible="true"
       lpeversion="1.2"
       linejoin_type="miter"
       unit="mm"
       offset="0"
       miter_limit="4"
       attempt_force_join="false"
       update_on_knot_move="true" />
    <inkscape:path-effect
       effect="skeletal"
       id="path-effect3544"
       is_visible="true"
       lpeversion="1"
       pattern="M 0,0 H 1"
       copytype="single_stretched"
       prop_scale="1"
       scale_y_rel="false"
       spacing="0"
       normal_offset="0"
       tang_offset="0"
       prop_units="false"
       vertical_pattern="false"
       hide_knot="false"
       fuse_tolerance="0" />
    <inkscape:path-effect
       effect="fill_between_many"
       method="bsplinespiro"
       linkedpaths="#path3538,0,1"
       id="path-effect3558"
       join="true"
       close="true"
       autoreverse="true"
       is_visible="true"
       lpeversion="0" />
  </defs>
  <g
     inkscape:groupmode="layer"
     id="layer2"
     inkscape:label="Layer 2">
    <path
       id="path59704"
       style="color:#000000;fill:#000000;stroke-miterlimit:2"
       d="M 320,480 C 212.00033,480 137.51163,514.38612 94.123047,567.07227 50.734462,619.75839 40,684.66684 40,740 40,795.33316 50.734462,860.24161 94.123047,912.92773 137.51163,965.61388 212.00033,1000 320,1000 h 0.002 c 13.88847,-6.4e-4 27.21286,-0.58002 39.99805,-1.68359 V 918.10352 880 561.90234 c 65.73702,6.4033 101.69443,28.80535 124.11523,56.02735 C 510.73018,650.24387 520,695.33562 520,740 c 0,44.66654 -9.26554,89.75653 -35.87695,122.07031 -10.88854,13.22176 -24.98598,25.2994 -44.12305,34.9668 v 85.44336 C 485.8265,967.33774 520.9822,943.15309 545.87695,912.92383 589.26518,860.24202 600,795.33316 600,740 600,684.66468 589.26015,619.75345 545.86719,567.06836 502.4766,514.38618 427.9904,480.00367 320,480.00391 Z m -40,81.89844 V 918.10156 C 214.254,911.69861 178.29636,889.29582 155.87695,862.07227 129.26575,829.75865 120,784.66654 120,740 120,695.33346 129.26575,650.24135 155.87695,617.92773 178.29636,590.70418 214.254,568.30139 280,561.89844 Z" />
  </g>
</svg>
