<?xml version="1.0" encoding="UTF-8" standalone="no"?>
<!-- Created with Inkscape (http://www.inkscape.org/) -->

<svg
   width="400"
   height="1000"
   viewBox="0 0 400 1000"
   version="1.1"
   id="svg5"
   inkscape:export-filename="f4.svg"
   inkscape:export-xdpi="96"
   inkscape:export-ydpi="96"
   inkscape:version="1.2.1 (9c6d41e410, 2022-07-14)"
   sodipodi:docname="ye2.svg"
   xmlns:inkscape="http://www.inkscape.org/namespaces/inkscape"
   xmlns:sodipodi="http://sodipodi.sourceforge.net/DTD/sodipodi-0.dtd"
   xmlns="http://www.w3.org/2000/svg"
   xmlns:svg="http://www.w3.org/2000/svg">
  <sodipodi:namedview
     id="namedview7"
     pagecolor="#ffffff"
     bordercolor="#000000"
     borderopacity="0.25"
     inkscape:showpageshadow="2"
     inkscape:pageopacity="0.0"
     inkscape:pagecheckerboard="0"
     inkscape:deskcolor="#d1d1d1"
     inkscape:document-units="px"
     showgrid="true"
     showguides="true"
     inkscape:zoom="0.914906"
     inkscape:cx="234.45032"
     inkscape:cy="506.06292"
     inkscape:window-width="2192"
     inkscape:window-height="1262"
     inkscape:window-x="3244"
     inkscape:window-y="3229"
     inkscape:window-maximized="1"
     inkscape:current-layer="layer2">
    <inkscape:grid
       type="xygrid"
       id="grid132"
       originx="0"
       originy="1000"
       spacingx="40"
       spacingy="40"
       empspacing="5"
       dotted="false" />
    <sodipodi:guide
       position="-120,520"
       orientation="0,-1"
       id="guide30722"
       inkscape:locked="false" />
  </sodipodi:namedview>
  <defs
     id="defs2">
    <inkscape:path-effect
       effect="powerstroke"
       id="path-effect3556"
       is_visible="true"
       lpeversion="1"
       offset_points="0.2,0 | 0.5,0 | 0.8,0"
       not_jump="false"
       sort_points="true"
       interpolator_type="CentripetalCatmullRom"
       interpolator_beta="0.75"
       start_linecap_type="square"
       linejoin_type="round"
       miter_limit="4"
       scale_width="309"
       end_linecap_type="square" />
    <inkscape:path-effect
       effect="vonkoch"
       id="path-effect3548"
       is_visible="true"
       lpeversion="1"
       ref_path="M 52.916016,105.83398 H 158.75"
       generator="m 52.916016,105.83398 h 35.277995 m 35.277999,0 H 158.75"
       similar_only="false"
       nbgenerations="4"
       drawall="true"
       maxComplexity="1000" />
    <inkscape:path-effect
       effect="offset"
       id="path-effect3546"
       is_visible="true"
       lpeversion="1.2"
       linejoin_type="miter"
       unit="mm"
       offset="0"
       miter_limit="4"
       attempt_force_join="false"
       update_on_knot_move="true" />
    <inkscape:path-effect
       effect="skeletal"
       id="path-effect3544"
       is_visible="true"
       lpeversion="1"
       pattern="M 0,0 H 1"
       copytype="single_stretched"
       prop_scale="1"
       scale_y_rel="false"
       spacing="0"
       normal_offset="0"
       tang_offset="0"
       prop_units="false"
       vertical_pattern="false"
       hide_knot="false"
       fuse_tolerance="0" />
    <inkscape:path-effect
       effect="fill_between_many"
       method="bsplinespiro"
       linkedpaths="#path3538,0,1"
       id="path-effect3558"
       join="true"
       close="true"
       autoreverse="true"
       is_visible="true"
       lpeversion="0" />
  </defs>
  <g
     inkscape:groupmode="layer"
     id="layer2"
     inkscape:label="Layer 2">
    <path
       id="path69769"
       style="color:#000000;fill:#000000;stroke-miterlimit:2"
       d="m 198.63965,480 c -41.11099,0 -76.69481,19.37492 -99.539062,45.60352 C 76.256334,551.83209 63.521292,583.4125 55.049806,614.47461 52.723864,623.00306 50.746127,631.5458 49.034181,640 H 131.1084 c 0.37868,-1.49013 0.71769,-2.99546 1.12109,-4.47461 6.52847,-23.93773 16.29357,-44.8576 27.19922,-57.37891 C 170.33436,565.6252 179.75082,560 198.63965,560 c 18.88883,0 28.30529,5.6252 39.21094,18.14648 10.90565,12.52131 20.67073,33.44118 27.19922,57.37891 7.78436,28.5427 10.88801,59.3346 12.31054,84.47461 H 42.63965 c -4,80 -1.680922,121.69438 13.052734,167.64844 8.90543,26.71628 22.758384,54.18904 46.396486,76.07617 23.6381,21.88713 57.66201,36.27539 96.55078,36.27539 38.88877,0 72.91267,-14.38826 96.55078,-36.27539 9.22272,-8.53956 16.91843,-17.94321 23.44922,-27.80664 6.53079,9.86343 14.2265,19.26708 23.44922,27.80664 23.63811,21.88713 57.66201,36.27539 96.55078,36.27539 38.88877,0 72.91267,-14.38826 96.55078,-36.27539 23.63811,-21.88713 37.49104,-49.35989 46.39649,-76.07617 0.85025,-2.55078 1.64291,-5.10021 2.40973,-7.64844 h -85.50739 c -5.05861,10.30709 -11.0316,18.89689 -17.65039,25.02539 C 470.72707,914.38817 459.7507,920 438.63965,920 c -21.11105,0 -32.08742,-5.61183 -42.19922,-14.97461 -10.1118,-9.36277 -18.759,-24.39026 -24.85351,-42.67383 C 364.90337,842.30095 361.80286,815.82254 360.2334,796 h 234.40625 c 4,-76 0.97789,-130.50266 -12.41016,-181.52539 C 573.75801,583.4125 561.02297,551.83209 538.17871,525.60352 515.33447,499.37492 479.75064,480 438.63965,480 c -41.11099,0 -76.69482,19.37492 -99.53906,45.60352 -7.99612,9.18073 -14.69106,19.04277 -20.46094,29.2832 -5.76988,-10.24043 -12.46482,-20.10247 -20.46094,-29.2832 C 275.33447,499.37492 239.75064,480 198.63965,480 Z m 240,80 c 18.88883,0 28.30529,5.6252 39.21094,18.14648 10.90565,12.52131 20.67073,33.44118 27.19922,57.37891 7.78436,28.5427 10.88801,59.3346 12.31054,84.47461 h -157.4414 c 1.42253,-25.14001 4.52618,-55.93191 12.31054,-84.47461 6.52849,-23.93773 16.29357,-44.8576 27.19922,-57.37891 C 410.33436,565.6252 419.75082,560 438.63965,560 Z M 120.2334,796 h 156.8125 c -1.56946,19.82254 -4.66997,46.30095 -11.35352,66.35156 -6.09451,18.28357 -14.74171,33.31106 -24.85351,42.67383 C 230.72707,914.38817 219.7507,920 198.63965,920 177.5286,920 166.55223,914.38817 156.44043,905.02539 146.32863,895.66262 137.68144,880.63513 131.58692,862.35156 124.90338,842.30095 121.80286,815.82254 120.2334,796 Z"
       sodipodi:nodetypes="sssccssssscccssscssssccsssscccssscsssssccsssccsssssc" />
  </g>
</svg>
