<svg xmlns="http://www.w3.org/2000/svg" xmlns:xlink="http://www.w3.org/1999/xlink" xmlns:fi="http://pattern.flaticon.com/" x="0" y="0" width="700" height="350" viewBox="0 0 700 350"><rect x="0px" y="0px" width="100%" height="100%" opacity="1" fill="#2a6396"/><defs><g transform="matrix(0.1171875 0 0 0.1171875 111 111)" id="L1_192"><path d="m153.573 362.431c-36.363 13.123-40.553 52.592-40.553 52.592l5.022 6.809c48.171 26.834 122.356 36.576 192.947-7.63-65.085-2.054-119.66-12.752-157.416-51.771z" fill="#ffc250"/><path d="m154.603 363.473c-15.315-15.497-27.921-35.541-37.396-61.436-.396-1.082-.859-2.118-1.372-3.117-23.481 9.698-59.778 28.497-49.199 67.67 5.251 19.44 24.173 40.072 51.406 55.242-3.178-34.998 23.086-52.004 36.561-58.359z" fill="#75cef9"/><path d="m509.879 339.123c3.66-4.705 2.447-11.54-2.601-14.708-11.058-6.94-19.054-15.141-25.993-24.865-13.858-19.421-20.766-42.867-20.794-66.725-.009-8.052-.382-16.1-1.199-23.987-23.386-24.779-85.169-75.78-194.957-71.868-52.857 1.883-92.694 13.906-121.43 27.59 1.515 2.708 3.216 5.452 5.165 8.238 27.631 39.473-10.419 109.403-10.45 171.309 17.886 26.056 41.15 42.771 68.736 53.384l5.647-2.078 49.962 10.645 6.327 5.622.001.001c17.393 2.003 35.788 2.921 55.036 3.222l.002-.002 6.282-3.221 40.434-3.047 9.921 3.936c65.272-7.962 107.986-33.317 124.626-44.951 4.483-3.135 5.63-9.276 2.596-13.828-2.404-3.605-2.231-8.345.43-11.765z" fill="#ffc250"/><path d="m507.647 341.993c-210.884 49.724-302.228-32.158-355.972-63.135-1.378-.794-2.793-1.535-4.228-2.249-4.974 22.358-9.814 45.438-9.825 67.499 17.886 26.056 41.15 42.771 68.736 53.384l5.647-2.078 49.962 10.645 6.327 5.622.001.001c17.393 2.003 35.788 2.921 55.036 3.222l.002-.002 6.282-3.221 40.434-3.047 9.921 3.936c65.272-7.962 107.986-33.317 124.626-44.951 4.483-3.135 5.63-9.276 2.596-13.828-2.404-3.605-2.231-8.345.43-11.765z" fill="#f2ab08"/><path d="m152.192 172.799c-2.318-3.312-4.301-6.568-6.014-9.77-26.205 12.006-43.63 25.563-53.606 34.782 3.062 5.056 7.001 10.169 11.915 15.324 6.256 6.563 3.413 17.451-5.21 20.252-4.628 1.503-9.707 1.768-14.743.521-18.904-4.683-33.999-14.992-44.925-24.984-11.537-10.55-30.121-5.234-34.15 9.872-8.232 30.872-5.93 59.159-1.099 80.606 3.445 15.299 22.08 21.384 33.901 11.077 13.975-12.186 32.106-19.128 46.699-23.02 13.412-3.578 27.422 3.51 32.249 16.525 6.701 18.062 14.968 33.238 24.649 45.986-2.565-63.304 38.841-136.447 10.334-177.171z" fill="#75cef9"/><path d="m141.856 349.97c-.938-23.176 4.017-47.67 9.277-71.409-43.92-24.844-117.421-9.215-150.226-.261.778 7.575 1.999 14.651 3.452 21.103 3.445 15.299 22.08 21.384 33.901 11.077 13.975-12.186 32.106-19.128 46.699-23.02 13.412-3.578 27.422 3.51 32.249 16.525 6.7 18.062 14.967 33.237 24.648 45.985z" fill="#6bbef6"/><path d="m276.864 178.94c-6.914-15.648-10.74-29.605-12.384-41.974-.049.002-.096.002-.145.004-20.753.739-39.492 3.046-56.349 6.399 2.002 10.731 5.604 22.564 11.352 35.571 34.22 77.444-33.688 136.545-12.99 218.555 18.757 7.216 39.519 11.603 61.947 14.186-33.143-89.549 44.73-150.904 8.569-232.741z" fill="#75cef9"/><path d="m209.986 314.238c-6.872 26.022-11.252 53.089-3.638 83.258 18.757 7.216 39.519 11.603 61.947 14.186-9.88-26.694-9.892-50.882-6.003-73.855-19.857-7.035-37.122-15.276-52.306-23.589z" fill="#6bbef6"/><path d="m388.202 178.94c-3.608-8.166-6.367-15.866-8.423-23.127-17.579-7.054-37.886-12.855-61.084-16.135 1.823 11.69 5.565 24.744 11.981 39.262 36.593 82.815-43.6 144.654-7.342 235.962 5.262.082 10.583.121 15.969.121 14.401 0 27.955-.903 40.668-2.453-33.99-90.031 44.511-151.523 8.231-233.63z" fill="#75cef9"/><path d="m371.417 357.485c-20.714-.58-39.695-2.667-57.126-5.844-1.774 19.788.051 40.618 9.042 63.261 5.262.082 10.583.121 15.969.121 14.401 0 27.955-.903 40.668-2.453-7.376-19.539-9.45-37.732-8.553-55.085z" fill="#6bbef6"/><circle cx="428" cy="313" r="21" fill="#477b9e"/><path d="m428.739 313.795c0-7.869 4.284-14.723 10.636-18.402-3.131-1.814-6.757-2.869-10.636-2.869-11.747 0-21.271 9.523-21.271 21.271s9.523 21.271 21.271 21.271c3.879 0 7.504-1.055 10.636-2.869-6.352-3.68-10.636-10.534-10.636-18.402z" fill="#365e7d"/><path d="m449.43 167.733c-11.543-27.16-34.364-56.041-69.346-75.823l-12.524 3.208-30.734-11.675-4.388-10.153c-14.947-3.606-31.291-5.715-49.057-5.935l-22.273 9.563-29.36 6.181-10.934-9.403c-26.969 5.53-53.442 14.433-75.802 25.871l-32.249 30.405v56.561c27.237-19.599 75.995-43.978 152.127-46.729 112.722-4.073 174.137 51.384 194.92 74.793-1.263-16.68-4.408-32.811-10.38-46.864z" fill="#ffe07d"/><g fill="#90d8f9"><path d="m145.036 99.544c-48.542 24.821-77.665 61.59-50.221 101.75 9.657-9.168 26.887-22.972 53.076-35.208-16.163-27.573-10.823-51.081-2.855-66.542z"/><path d="m220.81 73.692c-9.865 13.869-19.648 37.497-12.239 72.666 16.818-3.436 35.544-5.803 56.32-6.554-5.878-37.414 8.083-60.752 18.492-72.448-8.779-.109-17.898.234-27.378 1.099-11.625 1.059-23.457 2.83-35.195 5.237z"/><path d="m332.438 73.29c-9.608 13.32-19.293 35.883-13.257 69.33 23.541 3.436 44.053 9.537 61.706 16.92-9.078-29.244-6.746-51.519-.803-67.629-13.934-7.88-29.796-14.314-47.646-18.621z"/></g></g><g transform="matrix(1.034482717514038 0 0 1.034482717514038 45 306)" id="L1_205" fill="none"><path d="m16.953 10.67c.021 0 1.924-8.568 15.963-9.916.2794436-.02355828.5559382.07130364.762061.26145385.2061229.19015021.3229303.45811302.321939.73854615l.0000063 11.246" id="L1_193" fill="#9bc8c2"/><path d="m46.03 23.14c-1.4139327 1.479215-2.9096086 2.8780725-4.48 4.19-1.4537714 1.2189829-2.9908385 2.3350273-4.6 3.34-1.0123847-.636812-2.0608074-1.2144462-3.14-1.73l.19-.4v-8.79c.0008965-.2796775-.1153694-.5469501-.3205868-.7369662-.2052175-.1900162-.4806308-.2854096-.7594132-.2630338-9.89.95-13.76 5.48-15.19 8.08l.03.1c-.9383729.2156215-1.8632939.4860858-2.77.81.6708551-1.9533474 1.0121781-4.0046652 1.01-6.07-.0096487-3.903531-1.2135458-7.7106375-3.45-10.91 1.659902-.8014405 3.4040179-1.41523513 5.2-1.83h.01c5.1573316-1.17114586 10.5583992-.57963389 15.34 1.68.24.11.47.22.71.33 2.9063245 1.4292561 5.6182547 3.2237675 8.07 5.34 1.450418 1.2302433 2.8356356 2.535352 4.15 3.91.7602074.8364057.7602074 2.1135943 0 2.95z" id="L1_194" fill="#2980ba"/><path d="m16 21.67c.0021781 2.0653348-.3391449 4.1166526-1.01 6.07v.01c-.8328863.2873396-1.6476969.6246177-2.44 1.01-1.1830711.5587795-2.3287923 1.1934355-3.43 1.9-3.22223764-2.1044557-6.10812236-4.6835467-8.56-7.65-.62983567-.7860645-.62983567-1.9039355 0-2.69 3.27285022-4.0015345 7.36011453-7.2604375 11.99-9.56 2.2364542 3.1993625 3.4403513 7.006469 3.45 10.91z" id="L1_195" fill="#9bc8c2"/><circle cx="9" cy="18" r="1" id="L1_201" fill="#35495e"/><path d="m58 31h-10c-2.88 0-5.1-1.99-6.45-3.67 1.5703914-1.3119275 3.0660673-2.710785 4.48-4.19.7602074-.8364057.7602074-2.1135943 0-2.95-1.3143644-1.374648-2.699582-2.6797567-4.15-3.91 1.37-1.59 3.46-3.28 6.12-3.28h10s0 7-5 9c5 2 5 9 5 9z" id="L1_196" fill="#285680"/><path d="m22.733 24.956c-.0556162-.0002755-.1111232-.0049568-.166-.014-.5444611-.0912737-.9119584-.6064862-.821-1.151.52-3.124.236-5.455-.823-6.739-.4736711-.6014287-1.1736665-.981798-1.936-1.052-.5481499-.014157-.9839982-.4646819-.98-1.013.0038438-.5458457.447141-.9864644.993-.987 1.3304875.0755012 2.5697034.7007238 3.421 1.726 1.5 1.764 1.932 4.588 1.3 8.394-.0802897.4829462-.4984258.8367537-.988.836z" id="L1_197" fill="#285680"/><path d="m27.977 22.934c-.022 0-.044 0-.065 0-.264691-.0169609-.5118013-.1383819-.686963-.3375486-.1751616-.1991667-.2640244-.4597621-.247037-.7244514.38-5.933-3.276-7.9-3.432-7.979-.4889357-.2507784-.6839257-.8490836-.4366453-1.3397978.2472803-.4907141.8441778-.6899718 1.3366453-.4462022.2.1 5 2.585 4.527 9.893-.0347127.5248171-.470037.9330429-.996.934z" id="L1_198" fill="#285680"/><path d="m16.954 28.676c.015 0 1.916-8.576 15.966-9.926.2787824-.0223758.5541957.0730176.7594132.2630338.2052174.1900161.3214833.4572887.3205868.7369662l.0000051 10.25z" id="L1_199" fill="#81ccb8"/><path d="m46.03 41.14c-1.4139327 1.479215-2.9096086 2.8780725-4.48 4.19-11.52 9.58-21.6 8.74-29 5.24 2.2349152-3.1963631 3.4387595-6.9998133 3.45-10.9-.0096487-3.903531-1.2135458-7.7106375-3.45-10.91.7923031-.3853823 1.6071137-.7226604 2.44-1.01v-.01c.9067061-.3239142 1.8316271-.5943785 2.77-.81 5.1573316-1.1711459 10.5583992-.5796339 15.34 1.68.24.1.47.21.71.33 1.0791926.5155538 2.1276153 1.093188 3.14 1.73 1.7330644 1.0757388 3.3812152 2.2825997 4.93 3.61 1.450418 1.2302433 2.8356356 2.535352 4.15 3.91.7602074.8364057.7602074 2.1135943 0 2.95z" id="L1_200" fill="#3b97d3"/><path d="m16 39.67c-.0112405 3.9001867-1.2150848 7.7036369-3.45 10.9-4.63169063-2.2967268-8.71951228-5.5560742-11.99-9.56-.62983567-.7860645-.62983567-1.9039355 0-2.69 2.45372551-2.9675073 5.33924517-5.5496429 8.56-7.66 1.1012077-.7065645 2.2469289-1.3412205 3.43-1.9 2.2364542 3.1993625 3.4403513 7.006469 3.45 10.91z" id="L1_202" fill="#81ccb8"/><circle cx="9" cy="36" r="1" id="Oval" fill="#35495e"/><g fill="#2980ba"><path d="m58 49h-10c-2.88 0-5.1-1.99-6.45-3.67 1.5703914-1.3119275 3.0660673-2.710785 4.48-4.19.7602074-.8364057.7602074-2.1135943 0-2.95-1.3143644-1.374648-2.699582-2.6797567-4.15-3.91 1.37-1.59 3.46-3.28 6.12-3.28h10s0 7-5 9c5 2 5 9 5 9z" id="L1_203"/><path d="m23 40c-.5522847 0-1-.4477153-1-1 0-4.781-2.7-4.992-3.013-5-.5481499-.014157-.9839982-.4646819-.98-1.013.0038438-.5458457.447141-.9864644.993-.987.05 0 5 .08 5 7 0 .5522847-.4477153 1-1 1z" id="L1_204"/><path d="m28 40c-.5522847 0-1-.4477153-1-1 0-5.32-3.413-7.088-3.447-7.1-.4942949-.2468713-.6948713-.8477051-.448-1.342s.8477051-.6948713 1.342-.448c.186.09 4.553 2.347 4.553 8.89 0 .5522847-.4477153 1-1 1z" id="Shape"/></g></g><g transform="matrix(0.1171875 0 0 0.1171875 284 185.9999962234499)" id="L1_207"><path d="m349.634 241.82c-12.797-12.094-33.094-11.194-45.015 1.764-5.462 5.937-11.863 10.906-18.929 14.798-12.278 6.761-32.852 20.955-41.048 43.174l4.714 2.841 132.455-4.748 4.004-4.444c-4.842-12.071-15.677-34.008-36.181-53.385z" fill="#ffe07d"/><path d="m314.388 273.606c7.067-3.891 13.467-8.861 18.929-14.798 6.144-6.678 14.511-10.144 22.931-10.289-2.089-2.253-4.281-4.494-6.614-6.699-12.797-12.094-33.094-11.194-45.015 1.764-5.462 5.937-11.863 10.906-18.929 14.798-12.278 6.761-32.852 20.955-41.048 43.174l4.714 2.841 30.965-1.11c9.86-14.606 24.488-24.406 34.067-29.681z" fill="#ffc250"/><path d="m254.412 431.056-72.627-25.754-6.985 2.685-10.956 32.74c-3.425 10.233 4.728 20.703 15.48 19.781 34.289-2.94 61.933-15.929 77.046-24.629z" fill="#ffc250"/><path d="m198.775 435.691 7.289-21.78-24.279-8.609-6.985 2.685-10.956 32.74c-3.425 10.233 4.728 20.703 15.48 19.781 10.837-.929 21.008-2.864 30.332-5.348-8.323-1.884-13.796-10.759-10.881-19.469z" fill="#f2ab08"/><path d="m152.817 299.321c-9.005-.772-15.834 7.997-12.965 16.568l7.163 21.403 3.607 2.676 47.903-21.685 5.559-5.159c-13.042-5.977-30.73-12.042-51.267-13.803z" fill="#ffe07d"/><path d="m163.715 311.768c-1.298-3.879-.597-7.789 1.38-10.846-3.964-.687-8.057-1.239-12.277-1.601-9.005-.772-15.834 7.997-12.965 16.568l7.163 21.403 3.607 2.676 19.566-8.857z" fill="#ffc250"/><path d="m413.059 431.363-55.144 6.904-2.221 5.778 17.952 27.004c5.974 8.987 19.244 8.981 25.118-.071 8.191-12.622 14.086-25.421 18.328-37.272z" fill="#ffe07d"/><path d="m395.795 461.348-17.075-25.685-20.805 2.605-2.221 5.778 17.952 27.004c5.974 8.987 19.244 8.981 25.118-.071.973-1.499 1.908-3.001 2.818-4.503-2.242-1.122-4.256-2.825-5.787-5.128z" fill="#ffc250"/><path d="m250.79 41.185c-10.436-9.863-26.989-9.129-36.711 1.438-4.454 4.842-9.674 8.895-15.437 12.068-10.013 5.514-26.791 17.089-33.476 35.21l2.987 3.429h110.125l2.018-8.609c-3.949-9.843-12.785-27.733-29.506-43.536z" fill="#ffe07d"/><path d="m220.552 69.576c5.763-3.173 10.983-7.226 15.437-12.068 5.964-6.483 14.498-9.258 22.614-8.163-2.394-2.747-4.982-5.484-7.814-8.16-10.436-9.863-26.989-9.129-36.711 1.438-4.454 4.842-9.674 8.895-15.437 12.068-10.013 5.514-26.791 17.089-33.476 35.21l2.987 3.429h24.93c8.036-11.66 19.758-19.507 27.47-23.754z" fill="#ffc250"/><path d="m171.636 192.313-59.646-18.286-3.781 2.67-8.935 26.7c-2.793 8.345 3.856 16.884 12.624 16.132 27.964-2.398 50.508-12.991 62.833-20.086z" fill="#ffc250"/><path d="m127.761 203.398 7.447-22.253-23.217-7.118-3.781 2.67-8.935 26.7c-2.793 8.345 3.856 16.884 12.624 16.132 6.806-.584 13.287-1.655 19.381-3.041-3.484-3.104-5.182-8.123-3.519-13.09z" fill="#f2ab08"/><path d="m424.931 431.363-1.056-8.549-20.346-56.494 26.285-58.113-.69-3.811s.017-.006.02-.007c-25.769-7.519-58.043-12.837-97.82-12.837-82.766 0-150.569 27.61-190.951 49.21-9.009 4.819-20.091 1.706-25.531-6.943-18.374-29.209-47.765-41.051-65.568-45.84-5.311-1.429-9.378 4.81-5.819 9.003 33.618 39.598 33.77 98.332 0 138.11-3.56 4.193.507 10.432 5.819 9.003 17.852-4.802 47.359-16.693 65.722-46.079 5.444-8.712 16.613-11.855 25.64-6.953 42.516 23.085 113.578 53.805 190.687 53.805 37.574 0 68.608-5.646 93.614-13.499z" fill="#3f6d8e"/><path d="m423.876 422.814-7.041-19.551c-22.033 5.148-47.812 8.521-77.612 8.521-79.215 0-152.218-30.72-195.895-53.805-9.275-4.902-20.748-1.758-26.341 6.954-15.499 24.142-38.72 36.471-56.685 42.767-4.111 9.736-9.713 18.991-16.847 27.394-3.56 4.193.507 10.432 5.819 9.003 17.852-4.802 47.359-16.693 65.722-46.079 5.444-8.712 16.613-11.855 25.64-6.953 42.516 23.085 113.578 53.805 190.687 53.805 37.574 0 68.608-5.646 93.614-13.499l-.006-.007z" fill="#365e7d"/><path d="m312.196 195.761 1.794-5.08-19.745-47.964 22.664-45.782-1.293-4.718s.011-.005.015-.006c-21.015-6.132-47.335-10.468-79.773-10.468-67.498 0-122.793 22.517-155.725 40.132-7.347 3.93-16.384 1.391-20.821-5.662-14.984-23.82-38.954-33.478-53.472-37.383-4.331-1.165-7.648 3.923-4.745 7.342 27.416 32.293 27.541 80.192 0 112.631-2.903 3.419.414 8.507 4.745 7.342 14.559-3.916 38.622-13.614 53.598-37.578 4.44-7.104 13.548-9.668 20.91-5.671 34.672 18.827 92.625 43.879 155.509 43.879 30.646.001 55.946-4.608 76.339-11.014z" fill="#3f6d8e"/><path d="m80.348 136.156c-7.363-3.903-16.47-1.4-20.91 5.536-12.067 18.85-30.03 28.655-44.17 33.754-3.386 8.314-8.107 16.212-14.173 23.358-2.903 3.419.414 8.507 4.745 7.342 14.559-3.916 38.622-13.614 53.598-37.578 4.44-7.104 13.548-9.668 20.91-5.671 34.672 18.827 92.625 43.879 155.509 43.879 30.646 0 55.945-4.609 76.339-11.014l1.794-5.08-8.444-20.511c-76.091 20.984-155.298 3.038-225.198-34.015z" fill="#365e7d"/><path d="m509.101 358.992-8.585 7.008c-3.866 3.156-4.001 9.232-.005 12.221 4.017 3.005 4.252 8.906.522 12.217-10.966 9.734-35.644 28.218-76.102 40.925-17.268-15.001-28.201-37.103-28.201-61.772 0-26.615 12.715-50.252 32.394-65.194 44.644 13.027 69.766 32.66 80.401 42.746 3.46 3.279 3.268 8.835-.424 11.849z" fill="#477b9e"/><path d="m500.511 378.221c-2.952-2.208-3.643-6.098-2.248-9.253-13.938 9.404-34.67 20.686-62.877 29.31l.007.007c-9.263 2.832-19.344 5.369-30.241 7.466 4.848 9.809 11.602 18.508 19.78 25.612 40.458-12.707 65.136-31.191 76.102-40.925 3.729-3.311 3.494-9.211-.523-12.217z" fill="#3f6d8e"/><path d="m380.838 136.741-7.001 5.716c-3.153 2.574-3.263 7.529-.004 9.967 3.276 2.451 3.468 7.263.426 9.963-8.943 7.938-29.068 23.012-62.062 33.375-14.082-12.233-22.998-30.258-22.998-50.377 0-21.705 10.37-40.982 26.418-53.167 36.408 10.624 56.896 26.635 65.569 34.86 2.82 2.675 2.663 7.205-.348 9.663z" fill="#477b9e"/><path d="m373.833 152.423c-1.747-1.307-2.517-3.336-2.378-5.335-11.332 7.001-27.271 14.941-48.238 21.151-9.027 2.674-18.103 4.822-27.205 6.483 3.958 8.057 9.476 15.211 16.184 21.039 32.994-10.363 53.119-25.437 62.063-33.375 3.042-2.7 2.85-7.512-.426-9.963z" fill="#3f6d8e"/><path d="m336.2 140.707h-4.748c-4.267 0-7.726-3.459-7.726-7.726s3.459-7.726 7.726-7.726h4.748c4.267 0 7.726 3.459 7.726 7.726s-3.459 7.726-7.726 7.726z" fill="#e4f6ff"/><circle cx="445" cy="356" r="16" fill="#e4f6ff"/><path d="m445.995 356.149c0-5.985 3.259-11.199 8.09-13.998-2.382-1.38-5.14-2.182-8.09-2.182-8.936 0-16.18 7.244-16.18 16.18s7.244 16.18 16.18 16.18c2.951 0 5.708-.803 8.09-2.182-4.831-2.799-8.09-8.013-8.09-13.998z" fill="#d3effb"/><g fill="#477b9e"><path d="m351.965 339.968h-24.479c-18.172 0-28.025 21.888-15.45 35.006 7.78 8.116 19.449 14.768 36.939 15.999 3.271.23 6.102-2.275 6.32-5.547l2.607-39.112c.229-3.434-2.495-6.346-5.937-6.346z"/><path d="m251.518 121.227h-18.79c-14.82 0-22.855 17.85-12.6 28.548 6.158 6.424 15.303 11.723 28.875 12.947 3.327.3 6.255-2.202 6.477-5.535l1.974-29.614c.23-3.434-2.494-6.346-5.936-6.346z"/></g></g><g transform="matrix(0.1171875 0 0 0.1171875 232 27)" id="L1_211"><path d="M352.207,99.027l-44.939,32.634L290.236,256l21.121,123.657l40.851,33.316  c15.994-2.432,31.476-6.356,46.09-11.692V110.719C383.683,105.384,368.2,101.459,352.207,99.027z" fill="#efedee"/><path d="M356.552,392.189c-8.725,1.32-17.598,2.205-26.562,2.665l22.217,18.119  c15.994-2.432,31.476-6.356,46.09-11.692v-19.02C384.922,386.666,370.935,390.001,356.552,392.189z" fill="#d2d2d2"/><path d="M506.618,294.98l-4.078-7.159l7.549-8.303c1.253-7.589,1.911-15.431,1.911-23.517  c0-69.626-48.226-121.439-113.703-145.281c-24.005,40.888-37.036,91.598-37.036,145.281s13.03,104.403,37.036,145.281  C450.88,382.134,492.33,344.944,506.618,294.98L506.618,294.98z" fill="#fa9f6a"/><path d="M56.177,325.922C23.577,346.392,0,330.439,0,256s23.577-90.392,56.177-69.923V325.922z" fill="#3a484a"/><path d="M95.41,222.735v66.529c-13.827,16.474-27.154,29.065-39.233,36.658  C46.539,314.947,40.879,292.504,40.879,256s5.662-58.946,15.298-69.923C68.257,193.671,81.583,206.262,95.41,222.735z" fill="#e0712f"/><g><path d="M201.55,122.022c-49.177-61.88,17.424-88.992,85.272-65.457L201.55,122.022z" fill="#3a484a"/><path d="M201.55,389.978c-49.177,61.88,17.424,88.992,85.272,65.457L201.55,389.978z" fill="#3a484a"/></g><path d="M352.207,99.027L201.55,122.021c0,0,19.182-50.618,85.272-65.457  C309.99,64.608,333.311,78.547,352.207,99.027z" fill="#e0712f"/><path d="M352.207,412.973L201.55,389.979c0,0,19.182,50.618,85.272,65.457  C309.99,447.392,333.311,433.453,352.207,412.973z" fill="#fa9f6a"/><path d="M201.56,122.022h-0.01c-0.003,0.006-0.005,0.012-0.007,0.019l-32.579,34.148L145.117,266.08  l23.846,89.049l32.587,34.849c20.368,9.995,41.594,16.944,63.004,21.093V100.929C243.154,105.077,221.917,112.027,201.56,122.022z" fill="#efedee"/><path d="M263.382,390.168h-0.011c-22.76-4.41-45.325-11.799-66.977-22.424  c-9.669-4.736-19.151-10.115-28.379-16.158l0.949,3.544l32.587,34.849l0,0c5.092,2.499,10.238,4.807,15.426,6.929  c15.566,6.365,31.52,11.053,47.578,14.164v-20.689C264.163,390.309,263.773,390.244,263.382,390.168z" fill="#d2d2d2"/><g><path d="M315.273,256c0,56.912,12.938,111.301,36.933,156.973c-28.236,4.272-58.088,3.853-87.643-1.901   h-0.01C236.685,368.65,221.437,314.057,221.437,256s15.248-112.64,43.116-155.072h0.01c29.555-5.754,59.406-6.173,87.643-1.901   C328.222,144.699,315.273,199.088,315.273,256z" fill="#fa9f6a"/><path d="M175.449,256c0,47.634,9.065,93.508,26.101,133.978c-44.844-21.961-85.436-58.609-114.071-112.466   c-7.133-13.428-7.133-29.596,0-43.024c28.635-53.857,69.217-90.505,114.071-112.466C184.524,162.491,175.449,208.356,175.449,256z" fill="#fa9f6a"/></g><g><path d="M404.606,398.876c21.035-8.391,40.918-20.057,57.843-35.164c0.076-0.068,0.156-0.135,0.232-0.204   c7.745-6.938,14.858-14.601,21.098-22.922c0.063-0.083,0.124-0.168,0.186-0.251c7.926-10.609,14.385-22.193,19.095-34.668   c-21.516,33.628-56.287,59.082-97.511,74.093c-5.23,1.909-10.573,3.633-15.997,5.199c2.73,5.594,5.644,11.041,8.745,16.322   C400.412,400.512,402.514,399.709,404.606,398.876z" fill="#e0712f"/><path d="M263.371,390.168c-4.14-0.802-8.274-1.706-12.397-2.707c4.125,8.217,8.65,16.108,13.59,23.611   c25.304,4.926,51.35,6.049,76.982,3.281c3.576-0.386,7.131-0.847,10.66-1.38c-3.263-6.21-6.314-12.588-9.163-19.105   C317.096,396.457,290.127,395.374,263.371,390.168z" fill="#e0712f"/><path d="M201.55,389.978c-3.308-7.857-6.305-15.922-9.004-24.16   c-42.473-21.668-81.137-55.926-110.119-104.686c0.057,0.505,0.132,1.009,0.205,1.512c0.756,5.19,2.386,10.234,4.847,14.868   c7.73,14.539,16.672,28.447,26.827,41.414C139.284,350.822,169.318,374.194,201.55,389.978z" fill="#e0712f"/></g><g><path d="M507.818,279.418c-0.118,0.013-11.979,1.202-24.453-2.232c-4.114-1.133-8.367,1.285-9.499,5.399   c-1.133,4.114,1.285,8.367,5.399,9.499c8.951,2.464,17.576,2.989,23.298,2.989c1.603,0,2.966-0.041,4.057-0.093   c1.437-5.026,2.599-10.182,3.471-15.463C509.359,279.376,508.596,279.337,507.818,279.418z" fill="#3a484a"/><path d="M435.536,273.809c-1.064,0-2.145-0.22-3.176-0.687c-3.889-1.757-5.617-6.334-3.86-10.222   c3.365-7.446,9.921-13.117,17.988-15.56c8.068-2.444,16.669-1.361,23.599,2.969c3.619,2.261,4.719,7.028,2.458,10.646   c-2.261,3.618-7.027,4.72-10.646,2.458c-3.147-1.967-7.132-2.436-10.932-1.284c-3.8,1.151-6.856,3.75-8.385,7.133   C441.291,272.118,438.479,273.809,435.536,273.809z" fill="#3a484a"/></g></g></defs><g fi:class="KUsePattern"><pattern id="pattern_L1_192" width="350" height="350" patternUnits="userSpaceOnUse"><use xlink:href="#L1_192" x="-350" y="-350"/><use xlink:href="#L1_192" x="0" y="-350"/><use xlink:href="#L1_192" x="350" y="-350"/><use xlink:href="#L1_192" x="-350" y="0"/><use xlink:href="#L1_192" x="0" y="0"/><use xlink:href="#L1_192" x="350" y="0"/><use xlink:href="#L1_192" x="-350" y="350"/><use xlink:href="#L1_192" x="0" y="350"/><use xlink:href="#L1_192" x="350" y="350"/></pattern><rect x="0" y="0" width="100%" height="100%" fill="url(#pattern_L1_192)"/></g><g fi:class="KUsePattern"><pattern id="pattern_L1_205" width="350" height="350" patternUnits="userSpaceOnUse"><use xlink:href="#L1_205" x="-350" y="-350"/><use xlink:href="#L1_205" x="0" y="-350"/><use xlink:href="#L1_205" x="350" y="-350"/><use xlink:href="#L1_205" x="-350" y="0"/><use xlink:href="#L1_205" x="0" y="0"/><use xlink:href="#L1_205" x="350" y="0"/><use xlink:href="#L1_205" x="-350" y="350"/><use xlink:href="#L1_205" x="0" y="350"/><use xlink:href="#L1_205" x="350" y="350"/></pattern><rect x="0" y="0" width="100%" height="100%" fill="url(#pattern_L1_205)"/></g><g fi:class="KUsePattern"><pattern id="pattern_L1_207" width="350" height="350" patternUnits="userSpaceOnUse"><use xlink:href="#L1_207" x="-350" y="-350"/><use xlink:href="#L1_207" x="0" y="-350"/><use xlink:href="#L1_207" x="350" y="-350"/><use xlink:href="#L1_207" x="-350" y="0"/><use xlink:href="#L1_207" x="0" y="0"/><use xlink:href="#L1_207" x="350" y="0"/><use xlink:href="#L1_207" x="-350" y="350"/><use xlink:href="#L1_207" x="0" y="350"/><use xlink:href="#L1_207" x="350" y="350"/></pattern><rect x="0" y="0" width="100%" height="100%" fill="url(#pattern_L1_207)"/></g><g fi:class="KUsePattern"><pattern id="pattern_L1_211" width="350" height="350" patternUnits="userSpaceOnUse"><use xlink:href="#L1_211" x="-350" y="-350"/><use xlink:href="#L1_211" x="0" y="-350"/><use xlink:href="#L1_211" x="350" y="-350"/><use xlink:href="#L1_211" x="-350" y="0"/><use xlink:href="#L1_211" x="0" y="0"/><use xlink:href="#L1_211" x="350" y="0"/><use xlink:href="#L1_211" x="-350" y="350"/><use xlink:href="#L1_211" x="0" y="350"/><use xlink:href="#L1_211" x="350" y="350"/></pattern><rect x="0" y="0" width="100%" height="100%" fill="url(#pattern_L1_211)"/></g></svg>