<?xml version="1.0" encoding="UTF-8" standalone="no"?>
<!-- Created with Inkscape (http://www.inkscape.org/) -->

<svg
   width="400"
   height="1000"
   viewBox="0 0 400 1000"
   version="1.1"
   id="svg5"
   inkscape:export-filename="f4.svg"
   inkscape:export-xdpi="96"
   inkscape:export-ydpi="96"
   inkscape:version="1.2.1 (9c6d41e410, 2022-07-14)"
   sodipodi:docname="ya2.svg"
   xmlns:inkscape="http://www.inkscape.org/namespaces/inkscape"
   xmlns:sodipodi="http://sodipodi.sourceforge.net/DTD/sodipodi-0.dtd"
   xmlns="http://www.w3.org/2000/svg"
   xmlns:svg="http://www.w3.org/2000/svg">
  <sodipodi:namedview
     id="namedview7"
     pagecolor="#ffffff"
     bordercolor="#000000"
     borderopacity="0.25"
     inkscape:showpageshadow="2"
     inkscape:pageopacity="0.0"
     inkscape:pagecheckerboard="0"
     inkscape:deskcolor="#d1d1d1"
     inkscape:document-units="px"
     showgrid="true"
     showguides="true"
     inkscape:zoom="0.457453"
     inkscape:cx="436.11038"
     inkscape:cy="872.22075"
     inkscape:window-width="2192"
     inkscape:window-height="1262"
     inkscape:window-x="3244"
     inkscape:window-y="3229"
     inkscape:window-maximized="1"
     inkscape:current-layer="layer2">
    <inkscape:grid
       type="xygrid"
       id="grid132"
       originx="0"
       originy="1000"
       spacingx="40"
       spacingy="40"
       empspacing="5"
       dotted="false" />
    <sodipodi:guide
       position="-120,520"
       orientation="0,-1"
       id="guide30722"
       inkscape:locked="false" />
  </sodipodi:namedview>
  <defs
     id="defs2">
    <inkscape:path-effect
       effect="powerstroke"
       id="path-effect3556"
       is_visible="true"
       lpeversion="1"
       offset_points="0.2,0 | 0.5,0 | 0.8,0"
       not_jump="false"
       sort_points="true"
       interpolator_type="CentripetalCatmullRom"
       interpolator_beta="0.75"
       start_linecap_type="square"
       linejoin_type="round"
       miter_limit="4"
       scale_width="309"
       end_linecap_type="square" />
    <inkscape:path-effect
       effect="vonkoch"
       id="path-effect3548"
       is_visible="true"
       lpeversion="1"
       ref_path="M 52.916016,105.83398 H 158.75"
       generator="m 52.916016,105.83398 h 35.277995 m 35.277999,0 H 158.75"
       similar_only="false"
       nbgenerations="4"
       drawall="true"
       maxComplexity="1000" />
    <inkscape:path-effect
       effect="offset"
       id="path-effect3546"
       is_visible="true"
       lpeversion="1.2"
       linejoin_type="miter"
       unit="mm"
       offset="0"
       miter_limit="4"
       attempt_force_join="false"
       update_on_knot_move="true" />
    <inkscape:path-effect
       effect="skeletal"
       id="path-effect3544"
       is_visible="true"
       lpeversion="1"
       pattern="M 0,0 H 1"
       copytype="single_stretched"
       prop_scale="1"
       scale_y_rel="false"
       spacing="0"
       normal_offset="0"
       tang_offset="0"
       prop_units="false"
       vertical_pattern="false"
       hide_knot="false"
       fuse_tolerance="0" />
    <inkscape:path-effect
       effect="fill_between_many"
       method="bsplinespiro"
       linkedpaths="#path3538,0,1"
       id="path-effect3558"
       join="true"
       close="true"
       autoreverse="true"
       is_visible="true"
       lpeversion="0" />
  </defs>
  <g
     inkscape:groupmode="layer"
     id="layer2"
     inkscape:label="Layer 2">
    <path
       id="path46487"
       style="color:#000000;fill:#000000;stroke-linejoin:bevel;stroke-miterlimit:0;-inkscape-stroke:none"
       d="m 800,480 c -89.99955,0 -154.96018,36.61358 -192,86 -37.03981,49.38642 -48,107.33358 -48,154 v 40 c 0,46.66642 10.96019,104.61358 48,154 37.03982,49.38642 102.00045,85.99995 192,85.99995 13.96467,0 27.25177,-0.9784 40,-2.6523 V 916.93555 680 563.06444 c 44.25257,7.24942 69.91582,26.82331 88,50.93556 22.9599,30.61317 32,72.66682 32,106 v 40 c 0,26.05285 -5.56084,57.41297 -18.93555,84.49414 l 58.57813,58.57813 C 1030.5381,856.22361 1040,803.26833 1040,760 v -40 c 0,-46.66642 -10.9602,-104.61359 -48,-154 -37.0398,-49.38642 -102.00045,-86 -192,-86 z m -40,83.06444 V 916.93555 C 715.74743,909.68614 690.08418,890.11225 672,866 649.04012,835.38682 640,793.33317 640,760 v -40 c 0,-33.33318 9.04012,-75.38683 32,-106 18.08418,-24.11225 43.74743,-43.68614 88,-50.93556 z"
       sodipodi:nodetypes="ssssssccccsssccssssccssssc" />
    <path
       style="fill:none;stroke:#000000;stroke-width:80;stroke-linejoin:miter;stroke-miterlimit:2"
       d="m 1200,640 c 0,160 0,200 0,240 0,120 -60,160 -100,160 -100,0 -100,-152.4212 -100,-180 0,-60 0,-220 200,-220 200,0 199.9978,180 200,240 0,60.00299 0,200 -200,200"
       id="path59274-1"
       sodipodi:nodetypes="ccscccc" />
    <path
       id="path59704"
       style="color:#000000;fill:#000000;stroke-miterlimit:2"
       d="M 240 480 C 132.00033 480 57.51163 514.38612 14.123047 567.07227 C -29.265538 619.75839 -40 684.66684 -40 740 C -40 795.33316 -29.265538 860.24161 14.123047 912.92773 C 57.51163 965.61388 132.00033 1000 240 1000 L 240.00195 1000 C 253.89042 999.99936 267.21481 999.41998 280 998.31641 L 280 918.10352 L 280 880 L 280 561.90234 C 345.73702 568.30564 381.69443 590.70769 404.11523 617.92969 C 430.73018 650.24387 440 695.33562 440 740 C 440 784.66654 430.73446 829.75653 404.12305 862.07031 C 389.74822 879.52541 369.78971 894.98941 340 905.53516 L 340 988.35156 C 395.73608 974.058 437.47311 947.41413 465.87695 912.92383 C 509.26518 860.24202 520 795.33316 520 740 C 520 684.66468 509.26015 619.75345 465.86719 567.06836 C 422.4766 514.38618 347.9904 480.00367 240 480.00391 L 240 480 z M 200 561.89844 L 200 918.10156 C 134.254 911.69861 98.296356 889.29582 75.876953 862.07227 C 49.265748 829.75865 40 784.66654 40 740 C 40 695.33346 49.265748 650.24135 75.876953 617.92773 C 98.296356 590.70418 134.254 568.30139 200 561.89844 z " />
    <path
       id="path59704-1"
       style="color:#000000;fill:#000000;stroke-miterlimit:2"
       d="m -400.00005,517.5332 c -110.66634,0 -179.46951,50.10984 -210.39648,108.87109 -30.92698,58.76126 -29.60352,121.129 -29.60352,151.12891 0,29.99991 -1.32346,92.36765 29.60352,151.1289 30.92697,58.7613 99.73014,108.8711 210.39648,108.8711 v -40 l 0.002,40.0039 c 14.00214,-8e-4 27.32824,-0.809 39.99805,-2.3301 V 955.0723 877.5332 600 c 59.28046,7.77374 83.70652,33.48283 99.5918,63.66211 19.07421,36.23771 20.39939,83.86938 20.40039,113.86914 0.001,29.99991 -1.32109,77.63221 -20.39258,113.87105 -11.70721,22.2455 -28.07417,42.0516 -59.59966,54.0489 v 82.0566 c 64.79448,-17.483 107.75697,-55.8346 130.39453,-98.8496 30.9248,-58.76207 29.59878,-121.129 29.59766,-151.12891 -0.001,-30.00005 1.31981,-92.36878 -29.60938,-151.1289 -30.92768,-58.75698 -99.72678,-108.86205 -210.38281,-108.86328 z m -40,82.46289 V 955.0703 c -59.29097,-7.7731 -83.71798,-33.4835 -99.60352,-63.666 -19.07286,-36.23846 -20.39648,-83.87119 -20.39648,-113.8711 0,-29.99991 1.32362,-77.63264 20.39648,-113.87109 15.88554,-30.18251 40.31255,-55.89293 99.60352,-63.66602 z" />
  </g>
</svg>
